<mxfile host="Electron" modified="2024-01-18T03:39:35.291Z" agent="Mozilla/5.0 (X11; Linux x86_64) AppleWebKit/537.36 (KHTML, like Gecko) draw.io/22.1.16 Chrome/120.0.6099.109 Electron/28.1.0 Safari/537.36" etag="ZApOG_AWVN3zJnCqVb6e" version="22.1.16" type="device">
  <diagram name="Page-1" id="UgkzKDdlbD2YLOSZ790F">
    <mxGraphModel dx="584" dy="907" grid="0" gridSize="10" guides="1" tooltips="1" connect="1" arrows="1" fold="1" page="1" pageScale="1" pageWidth="850" pageHeight="1100" math="0" shadow="0">
      <root>
        <mxCell id="0" />
        <mxCell id="1" parent="0" />
        <mxCell id="kwFyTD9Cq_FAFEDmP9UZ-1" value="&lt;p style=&quot;margin:0px;margin-top:4px;text-align:center;&quot;&gt;&lt;font color=&quot;#666666&quot;&gt;&lt;b&gt;Directive&lt;/b&gt;&lt;/font&gt;&lt;/p&gt;&lt;hr size=&quot;1&quot;&gt;&lt;p style=&quot;margin:0px;margin-left:4px;&quot;&gt;&lt;br&gt;&lt;/p&gt;" style="verticalAlign=top;align=left;overflow=fill;fontSize=12;fontFamily=Helvetica;html=1;whiteSpace=wrap;strokeColor=#666666;fontColor=#333333;fillColor=#ffffff;labelBackgroundColor=none;strokeWidth=3;" parent="1" vertex="1">
          <mxGeometry x="1227.63" y="279" width="111.25" height="40" as="geometry" />
        </mxCell>
        <mxCell id="kwFyTD9Cq_FAFEDmP9UZ-14" style="edgeStyle=orthogonalEdgeStyle;shape=connector;curved=0;rounded=1;orthogonalLoop=1;jettySize=auto;html=1;exitX=0.5;exitY=0;exitDx=0;exitDy=0;labelBackgroundColor=default;strokeColor=#666666;strokeWidth=3;align=center;verticalAlign=middle;fontFamily=Helvetica;fontSize=11;fontColor=default;endArrow=none;endFill=0;startSize=10;endSize=9;startArrow=open;startFill=0;" parent="1" source="kwFyTD9Cq_FAFEDmP9UZ-11" target="kwFyTD9Cq_FAFEDmP9UZ-1" edge="1">
          <mxGeometry relative="1" as="geometry">
            <Array as="points">
              <mxPoint x="1283.01" y="415" />
            </Array>
          </mxGeometry>
        </mxCell>
        <mxCell id="kwFyTD9Cq_FAFEDmP9UZ-11" value="&lt;p style=&quot;margin:0px;margin-top:4px;text-align:center;&quot;&gt;&lt;font color=&quot;#666666&quot;&gt;&lt;b&gt;&lt;i&gt;RestartOrder&lt;/i&gt;&lt;/b&gt;&lt;/font&gt;&lt;br&gt;&lt;/p&gt;&lt;hr size=&quot;1&quot;&gt;&lt;p style=&quot;margin:0px;margin-left:4px;&quot;&gt;&lt;/p&gt;&lt;font color=&quot;#666666&quot;&gt;&amp;nbsp;+ uuid: Option&amp;lt;Uuid&amp;gt;&lt;/font&gt;&lt;p style=&quot;margin:0px;margin-left:4px;&quot;&gt;&lt;br&gt;&lt;/p&gt;&lt;p style=&quot;margin:0px;margin-left:4px;&quot;&gt;&lt;br&gt;&lt;/p&gt;" style="verticalAlign=top;align=left;overflow=fill;fontSize=12;fontFamily=Helvetica;html=1;whiteSpace=wrap;labelBackgroundColor=none;fillColor=#ffffff;fontColor=#333333;strokeColor=#666666;strokeWidth=3;" parent="1" vertex="1">
          <mxGeometry x="1219.26" y="436" width="128" height="60" as="geometry" />
        </mxCell>
        <mxCell id="kwFyTD9Cq_FAFEDmP9UZ-16" style="edgeStyle=orthogonalEdgeStyle;shape=connector;curved=0;rounded=1;orthogonalLoop=1;jettySize=auto;html=1;labelBackgroundColor=default;strokeColor=#666666;strokeWidth=3;align=center;verticalAlign=middle;fontFamily=Helvetica;fontSize=11;fontColor=default;endArrow=none;endFill=0;startSize=10;endSize=9;exitX=0;exitY=0.5;exitDx=0;exitDy=0;entryX=0.75;entryY=1;entryDx=0;entryDy=0;startArrow=open;startFill=0;" parent="1" source="kwFyTD9Cq_FAFEDmP9UZ-13" target="kwFyTD9Cq_FAFEDmP9UZ-1" edge="1">
          <mxGeometry relative="1" as="geometry" />
        </mxCell>
        <mxCell id="kwFyTD9Cq_FAFEDmP9UZ-21" style="edgeStyle=orthogonalEdgeStyle;shape=connector;curved=0;rounded=1;orthogonalLoop=1;jettySize=auto;html=1;labelBackgroundColor=default;strokeColor=#666666;strokeWidth=3;align=center;verticalAlign=middle;fontFamily=Helvetica;fontSize=11;fontColor=default;endArrow=none;endFill=0;startSize=10;endSize=9;entryX=0.25;entryY=1;entryDx=0;entryDy=0;startArrow=open;startFill=0;" parent="1" source="kwFyTD9Cq_FAFEDmP9UZ-3" target="kwFyTD9Cq_FAFEDmP9UZ-1" edge="1">
          <mxGeometry relative="1" as="geometry">
            <mxPoint x="1241.01" y="339" as="targetPoint" />
          </mxGeometry>
        </mxCell>
        <mxCell id="kwFyTD9Cq_FAFEDmP9UZ-3" value="&lt;p style=&quot;margin:0px;margin-top:4px;text-align:center;&quot;&gt;&lt;b&gt;&lt;i&gt;&lt;font color=&quot;#666666&quot;&gt;AdditionOrder&lt;/font&gt;&lt;/i&gt;&lt;/b&gt;&lt;/p&gt;&lt;hr size=&quot;1&quot;&gt;&lt;p style=&quot;margin:0px;margin-left:4px;&quot;&gt;&lt;font color=&quot;#666666&quot;&gt;+ image: String&lt;/font&gt;&lt;/p&gt;&lt;p style=&quot;margin:0px;margin-left:4px;&quot;&gt;&lt;font color=&quot;#666666&quot;&gt;+ network_name: String&lt;/font&gt;&lt;/p&gt;&lt;p style=&quot;margin:0px;margin-left:4px;&quot;&gt;&lt;/p&gt;&lt;font color=&quot;#666666&quot;&gt;&amp;nbsp;+ env_vars: HashMap&amp;lt;String, Value&amp;gt;&lt;/font&gt;&lt;p style=&quot;margin:0px;margin-left:4px;&quot;&gt;&lt;/p&gt;&lt;font color=&quot;#666666&quot;&gt;&amp;nbsp;+ args: Vec&amp;lt;String&amp;gt;&lt;/font&gt;&lt;p style=&quot;margin:0px;margin-left:4px;&quot;&gt;&lt;br&gt;&lt;/p&gt;" style="verticalAlign=top;align=left;overflow=fill;fontSize=12;fontFamily=Helvetica;html=1;whiteSpace=wrap;labelBackgroundColor=none;fillColor=#ffffff;fontColor=#333333;strokeColor=#666666;strokeWidth=3;" parent="1" vertex="1">
          <mxGeometry x="996" y="319" width="205.01" height="100" as="geometry" />
        </mxCell>
        <mxCell id="kwFyTD9Cq_FAFEDmP9UZ-13" value="&lt;div style=&quot;text-align: center;&quot;&gt;&lt;b style=&quot;background-color: initial; border-color: var(--border-color); color: rgb(102, 102, 102);&quot;&gt;&lt;i style=&quot;border-color: var(--border-color);&quot;&gt;Reconfigure&lt;b style=&quot;background-color: initial; color: rgb(51, 51, 51);&quot;&gt;&lt;i&gt;&lt;font color=&quot;#666666&quot;&gt;Order&lt;/font&gt;&lt;/i&gt;&lt;/b&gt;&lt;/i&gt;&lt;/b&gt;&lt;/div&gt;&lt;hr size=&quot;1&quot;&gt;&lt;p style=&quot;margin:0px;margin-left:4px;&quot;&gt;&lt;/p&gt;&lt;font color=&quot;#666666&quot;&gt;&amp;nbsp;+ uuid: Option&amp;lt;Uuid&amp;gt;,&lt;/font&gt;&lt;p style=&quot;margin:0px;margin-left:4px;&quot;&gt;&lt;font color=&quot;#666666&quot;&gt;+ network_name: String&lt;/font&gt;&lt;/p&gt;&lt;p style=&quot;margin:0px;margin-left:4px;&quot;&gt;&lt;/p&gt;&lt;font color=&quot;#666666&quot;&gt;&amp;nbsp;&lt;br&gt;&lt;/font&gt;" style="verticalAlign=top;align=left;overflow=fill;fontSize=12;fontFamily=Helvetica;html=1;whiteSpace=wrap;labelBackgroundColor=none;fillColor=#ffffff;fontColor=#333333;strokeColor=#666666;strokeWidth=3;spacingTop=5;" parent="1" vertex="1">
          <mxGeometry x="1393.8700000000001" y="304" width="148.13" height="70" as="geometry" />
        </mxCell>
        <mxCell id="kwFyTD9Cq_FAFEDmP9UZ-19" style="edgeStyle=orthogonalEdgeStyle;shape=connector;curved=0;rounded=1;orthogonalLoop=1;jettySize=auto;html=1;exitX=0;exitY=0.5;exitDx=0;exitDy=0;labelBackgroundColor=default;strokeColor=#666666;strokeWidth=3;align=center;verticalAlign=middle;fontFamily=Helvetica;fontSize=11;fontColor=default;endArrow=none;endFill=0;startSize=10;endSize=9;startArrow=open;startFill=0;" parent="1" source="kwFyTD9Cq_FAFEDmP9UZ-18" target="kwFyTD9Cq_FAFEDmP9UZ-11" edge="1">
          <mxGeometry relative="1" as="geometry" />
        </mxCell>
        <mxCell id="kwFyTD9Cq_FAFEDmP9UZ-20" style="edgeStyle=orthogonalEdgeStyle;shape=connector;curved=0;rounded=1;orthogonalLoop=1;jettySize=auto;html=1;labelBackgroundColor=default;strokeColor=#666666;strokeWidth=3;align=center;verticalAlign=middle;fontFamily=Helvetica;fontSize=11;fontColor=default;endArrow=none;endFill=0;startSize=10;endSize=9;startArrow=open;startFill=0;" parent="1" source="kwFyTD9Cq_FAFEDmP9UZ-18" target="kwFyTD9Cq_FAFEDmP9UZ-13" edge="1">
          <mxGeometry relative="1" as="geometry" />
        </mxCell>
        <mxCell id="kwFyTD9Cq_FAFEDmP9UZ-18" value="&lt;i style=&quot;border-color: var(--border-color); color: rgb(102, 102, 102);&quot;&gt;&amp;lt;&amp;lt;enumeration&amp;gt;&amp;gt;&lt;/i&gt;&lt;br style=&quot;border-color: var(--border-color); color: rgb(102, 102, 102);&quot;&gt;&lt;p style=&quot;margin: 4px 0px 0px;&quot;&gt;&lt;font color=&quot;#666666&quot;&gt;&lt;b&gt;&lt;i&gt;QueryType&lt;/i&gt;&lt;/b&gt;&lt;/font&gt;&lt;br&gt;&lt;/p&gt;&lt;hr size=&quot;1&quot;&gt;&lt;p style=&quot;margin:0px;margin-left:4px;&quot;&gt;&lt;/p&gt;&lt;font color=&quot;#666666&quot;&gt;&lt;div style=&quot;text-align: left;&quot;&gt;&lt;span style=&quot;background-color: initial;&quot;&gt;&amp;nbsp;+&amp;nbsp;&lt;/span&gt;&lt;span style=&quot;background-color: initial;&quot;&gt;Http { &lt;span style=&quot;white-space: pre;&quot;&gt;&#x9;&lt;/span&gt;endpoint: PathBuf,&amp;nbsp;&lt;/span&gt;&lt;/div&gt;&lt;div style=&quot;text-align: left;&quot;&gt;&lt;span style=&quot;background-color: initial;&quot;&gt;&lt;span style=&quot;white-space: pre;&quot;&gt;&#x9;&lt;/span&gt;&lt;span style=&quot;white-space: pre;&quot;&gt;&#x9;&lt;/span&gt;port: u16 &lt;span style=&quot;white-space: pre;&quot;&gt;&#x9;&lt;/span&gt;},&lt;/span&gt;&lt;/div&gt;&lt;/font&gt;&lt;p style=&quot;text-align: left; margin: 0px 0px 0px 4px;&quot;&gt;...&lt;/p&gt;" style="verticalAlign=top;align=center;overflow=fill;fontSize=12;fontFamily=Helvetica;html=1;whiteSpace=wrap;labelBackgroundColor=none;fillColor=#ffffff;fontColor=#333333;strokeColor=#666666;strokeWidth=3;" parent="1" vertex="1">
          <mxGeometry x="1387" y="416" width="161.86" height="100" as="geometry" />
        </mxCell>
        <mxCell id="kwFyTD9Cq_FAFEDmP9UZ-23" style="edgeStyle=orthogonalEdgeStyle;shape=connector;curved=0;rounded=1;orthogonalLoop=1;jettySize=auto;html=1;labelBackgroundColor=default;strokeColor=#666666;strokeWidth=3;align=center;verticalAlign=middle;fontFamily=Helvetica;fontSize=11;fontColor=default;endArrow=none;endFill=0;startSize=10;endSize=9;startArrow=open;startFill=0;" parent="1" source="kwFyTD9Cq_FAFEDmP9UZ-22" target="kwFyTD9Cq_FAFEDmP9UZ-13" edge="1">
          <mxGeometry relative="1" as="geometry" />
        </mxCell>
        <mxCell id="kwFyTD9Cq_FAFEDmP9UZ-22" value="&lt;i style=&quot;border-color: var(--border-color); color: rgb(102, 102, 102);&quot;&gt;&amp;lt;&amp;lt;enumeration&amp;gt;&amp;gt;&lt;/i&gt;&lt;br style=&quot;border-color: var(--border-color); color: rgb(102, 102, 102);&quot;&gt;&lt;p style=&quot;margin: 4px 0px 0px;&quot;&gt;&lt;font color=&quot;#666666&quot;&gt;&lt;b&gt;&lt;i&gt;ReconfigureType&lt;/i&gt;&lt;/b&gt;&lt;/font&gt;&lt;br&gt;&lt;/p&gt;&lt;hr size=&quot;1&quot;&gt;&lt;p style=&quot;margin:0px;margin-left:4px;&quot;&gt;&lt;/p&gt;&lt;span style=&quot;color: rgb(102, 102, 102); background-color: initial;&quot;&gt;&lt;div style=&quot;text-align: left;&quot;&gt;&lt;span style=&quot;background-color: initial;&quot;&gt;&amp;nbsp;+&amp;nbsp;&lt;/span&gt;Http { &lt;span style=&quot;white-space: pre;&quot;&gt;&#x9;&lt;/span&gt;endpoint: PathBuf,&amp;nbsp;&lt;/div&gt;&lt;div style=&quot;text-align: left;&quot;&gt;&lt;span style=&quot;white-space: pre;&quot;&gt;&#x9;&lt;/span&gt;&lt;span style=&quot;white-space: pre;&quot;&gt;&#x9;&lt;/span&gt;port: u16,&amp;nbsp;&lt;/div&gt;&lt;div style=&quot;text-align: left;&quot;&gt;&lt;span style=&quot;background-color: initial;&quot;&gt;&lt;span style=&quot;white-space: pre;&quot;&gt;&#x9;&lt;/span&gt;&lt;span style=&quot;white-space: pre;&quot;&gt;&#x9;&lt;/span&gt;method: Method,&lt;/span&gt;&lt;/div&gt;&lt;div style=&quot;text-align: left;&quot;&gt;&lt;span style=&quot;background-color: initial;&quot;&gt;&amp;nbsp; &amp;nbsp; &amp;nbsp; &amp;nbsp; &lt;span style=&quot;white-space: pre;&quot;&gt;&#x9;&lt;/span&gt;payload: Value&amp;nbsp; &amp;nbsp;&lt;/span&gt;&lt;span style=&quot;background-color: initial;&quot;&gt;&amp;nbsp;&lt;/span&gt;&lt;span style=&quot;background-color: initial;&quot;&gt;},&lt;/span&gt;&lt;/div&gt;&lt;/span&gt;&lt;p style=&quot;text-align: left; margin: 0px 0px 0px 4px;&quot;&gt;...&lt;/p&gt;" style="verticalAlign=top;align=center;overflow=fill;fontSize=12;fontFamily=Helvetica;html=1;whiteSpace=wrap;labelBackgroundColor=none;fillColor=#ffffff;fontColor=#333333;strokeColor=#666666;strokeWidth=3;" parent="1" vertex="1">
          <mxGeometry x="1579.54" y="274" width="173.25" height="130" as="geometry" />
        </mxCell>
      </root>
    </mxGraphModel>
  </diagram>
</mxfile>
